<svg width="36" height="30" viewBox="0 0 36 30" fill="none" xmlns="http://www.w3.org/2000/svg">
<path d="M27.9394 2.80625L24.8573 2.73935L21.7753 2.69035L15.6112 2.61405L9.4471 2.56925L3.28299 2.55551L2.13733 2.55298L2.14022 3.69828L2.15581 9.86239L2.20137 16.0265L2.2781 22.1906C2.30454 24.2453 2.34819 26.3 2.3944 28.3547L2.41483 29.2633L3.28299 29.2433C5.3892 29.1946 7.49501 29.1597 9.58679 29.0871L15.8248 28.8704L27.9394 28.3547L15.3976 27.8389L9.30738 27.6223C7.59424 27.5606 5.89126 27.5259 4.18998 27.4871C4.22882 25.7216 4.26513 23.956 4.2878 22.1905L4.36457 16.0264L4.4101 9.86236L4.42279 4.8384L9.44707 4.82723L15.6111 4.78246L21.7752 4.70613L24.8573 4.65716L27.0685 4.60918C27.1075 6.30912 27.1433 8.01043 27.2035 9.72201L27.4208 15.8117L27.9393 28.3547L28.4579 16.2413L28.6753 10.0028C28.7462 7.91052 28.7828 5.80481 28.8313 3.69831L28.8514 2.8261L27.9394 2.80625Z" fill="#019856"/>
<path d="M29.5475 0L13.702 15.6932L6.89374 9.27167L0 16.5801L13.8261 29.6205L36.0001 6.11038L29.5475 0Z" fill="#019856"/>
<path d="M30.9908 1.38525L13.7805 18.5958L6.96714 11.7821L2.23389 16.5149L13.7805 28.0616L35.7236 6.11851L30.9908 1.38525Z" fill="#006F6C"/>
</svg>
